<?xml version="1.0" encoding="iso-8859-1"?>
<!-- Generator: Adobe Illustrator 19.0.0, SVG Export Plug-In . SVG Version: 6.00 Build 0)  -->
<svg version="1.1" id="Layer_1" xmlns="http://www.w3.org/2000/svg" xmlns:xlink="http://www.w3.org/1999/xlink" x="0px" y="0px"
	 viewBox="0 0 512.001 512.001" style="enable-background:new 0 0 512.001 512.001;" xml:space="preserve">
<path style="fill:#E6AF78;" d="M490.404,436.061l-33.848-9.67c-3.545-1.013-5.99-4.253-5.99-7.94v-13.805h-49.548v13.804
	c0,3.687-2.444,6.927-5.989,7.94l-33.849,9.671c-10.636,3.039-17.968,12.76-17.968,23.821v43.86c0,4.561,3.697,8.258,8.258,8.258
	h148.645c4.561,0,8.258-3.697,8.258-8.258v-43.86C508.373,448.821,501.04,439.1,490.404,436.061z"/>
<path style="fill:#FFF082;" d="M490.404,436.061l-30.955-8.844c-4.645,14.811-18.315,25.63-34.659,25.63
	c-16.151,0-29.693-10.564-34.495-25.104l-29.115,8.319c-10.636,3.039-17.968,12.76-17.968,23.821v43.86
	c0,4.56,3.697,8.258,8.258,8.258h148.645c4.56,0,8.258-3.698,8.258-8.258v-43.86C508.373,448.821,501.04,439.1,490.404,436.061z"/>
<path style="fill:#5A4146;" d="M367.986,313.806v5.795c0,7.101,1.145,14.155,3.39,20.891l13.126,39.378h24.774v-90.839H392.76
	C379.078,289.032,367.986,300.124,367.986,313.806z"/>
<path style="fill:#694B4B;" d="M481.057,330.961l-13.974,48.91l-66.065-57.806c-9.122,0-16.516-7.395-16.516-16.516l0,0
	c0-13.682,11.092-24.774,24.774-24.774h57.806c9.122,0,16.516,7.395,16.516,16.516v15.522
	C483.599,318.95,482.743,325.059,481.057,330.961z"/>
<path style="fill:#D29B6E;" d="M401.018,419.815c7.659,3.112,16.011,4.864,24.774,4.864s17.115-1.752,24.774-4.864v-15.169h-49.548
	L401.018,419.815L401.018,419.815z"/>
<path style="fill:#F0C087;" d="M425.792,412.903L425.792,412.903c-27.365,0-49.548-22.184-49.548-49.548v-9.675
	c0-4.38,1.74-8.581,4.837-11.679l14.975-14.975c3.171-3.171,7.507-4.994,11.989-4.853c26.398,0.833,49.764,6.488,62.537,18.963
	c3.127,3.054,4.759,7.326,4.759,11.696v10.523C475.341,390.72,453.157,412.903,425.792,412.903z"/>
<path style="fill:#E6AF78;" d="M401.018,355.729c0-9.526,8-17.098,17.507-16.492c16.671,1.064,41.409,3.85,56.586,11.15
	c-0.495-3.484-1.992-6.773-4.529-9.251c-12.773-12.475-36.139-18.13-62.537-18.963h-0.001h-0.001
	c-4.481-0.141-8.818,1.683-11.988,4.853L381.081,342c-3.098,3.097-4.838,7.298-4.838,11.679v9.675
	c0,22.596,15.141,41.621,35.82,47.579c-6.883-8.492-11.045-19.272-11.045-31.063L401.018,355.729L401.018,355.729z"/>
<g>
	<path style="fill:#FFDC64;" d="M376.244,484.489c0-6.571-2.61-12.872-7.256-17.518l-21.257-21.257
		c-2.841,4.061-4.519,8.95-4.519,14.169v43.86c0,4.561,3.697,8.258,8.258,8.258h24.774L376.244,484.489L376.244,484.489z"/>
	<path style="fill:#FFDC64;" d="M475.341,484.489c0-6.571,2.61-12.872,7.256-17.518l21.257-21.257
		c2.841,4.061,4.519,8.95,4.519,14.169v43.86c0,4.561-3.697,8.258-8.258,8.258h-24.774V484.489z"/>
</g>
<ellipse style="fill:#785550;" cx="77.952" cy="284.9" rx="33.03" ry="28.903"/>
<path style="fill:#694B4B;" d="M69.694,284.903c0-12.124,8.549-22.468,20.645-26.76c-3.831-1.359-8-2.143-12.387-2.143
	c-18.243,0-33.032,12.941-33.032,28.903s14.789,28.903,33.032,28.903c4.388,0,8.556-0.784,12.387-2.143
	C78.243,307.371,69.694,297.027,69.694,284.903z"/>
<path style="fill:#E6AF78;" d="M138.579,449.297l-26.724-13.361c-5.596-2.798-9.131-8.518-9.13-14.774l0.002-24.775h-49.55v24.776
	c0,6.256-3.534,11.974-9.13,14.772l-26.724,13.362c-8.393,4.197-13.695,12.775-13.695,22.158v32.286c0,4.56,3.697,8.258,8.258,8.258
	h132.129c4.561,0,8.258-3.698,8.258-8.258v-32.285C152.274,462.073,146.972,453.494,138.579,449.297z"/>
<path style="fill:#D29B6E;" d="M77.952,429.419c8.892,0,17.409-1.833,25.217-5.096c-0.205-1.041-0.444-2.076-0.444-3.161
	l0.002-24.775h-49.55v24.776c0,1.091-0.239,2.131-0.446,3.176C60.544,427.585,69.057,429.419,77.952,429.419z"/>
<path style="fill:#D5DCED;" d="M138.579,449.297l-19.038-9.519c-8.828,13.632-24.139,22.673-41.589,22.673
	s-32.762-9.041-41.59-22.674l-19.038,9.52c-8.393,4.197-13.695,12.775-13.695,22.159v32.286c0,4.561,3.697,8.258,8.258,8.258
	h132.129c4.561,0,8.258-3.697,8.258-8.258v-32.285C152.274,462.073,146.972,453.494,138.579,449.297z"/>
<circle style="fill:#5A4146;" cx="77.952" cy="338.58" r="57.806"/>
<path style="fill:#694B4B;" d="M135.216,330.567c-3.177-23.557-21.225-43.251-44.436-48.376c-4.234-0.935-8.402-1.39-12.468-1.415
	c-27.695-0.173-36.943,38.067-12.046,50.198c1.339,0.652,2.187,0.945,2.187,0.945L97.22,384c0,0,7.665,0.524,15.396,0.762
	C128.598,372.745,138.201,352.702,135.216,330.567z"/>
<path style="fill:#F0C087;" d="M77.952,412.903L77.952,412.903c-25.192,0-45.992-18.8-49.137-43.135
	c-0.456-3.525,1.239-6.983,4.413-8.584c3.802-1.918,9.327-5.152,14.617-9.872c5.891-5.256,9.347-10.799,11.299-14.868
	c1.681-3.504,5.545-5.486,9.311-4.525c29.076,7.416,48.871,22.543,56.053,28.719c1.928,1.658,3.039,4.103,2.841,6.639
	C125.348,392.808,103.997,412.903,77.952,412.903z"/>
<path style="fill:#E6AF78;" d="M124.507,360.638c-7.181-6.176-26.977-21.303-56.053-28.719c-3.766-0.961-7.63,1.021-9.311,4.525
	c-1.478,3.082-3.921,7.008-7.546,11.016c-0.001,0.01-0.004,0.018-0.005,0.028c-1.125,1.275-2.323,2.553-3.747,3.825
	c-5.29,4.721-10.815,7.954-14.617,9.872c-3.174,1.601-4.868,5.059-4.413,8.585c2.825,21.855,19.927,39.12,41.625,42.438
	c-9.887-6.726-17.262-15.845-17.262-32.335v-11.776c1.876-1.385,3.765-2.766,5.663-4.46c4.59-4.096,8.597-8.833,11.81-13.933
	c22.243,6.941,37.323,18.502,43.04,23.418c1.565,1.372,5.449,4.952,9.993,9.215c1.955-4.705,3.248-9.753,3.663-15.058
	C127.546,364.741,126.435,362.296,124.507,360.638z"/>
<g>
	<path style="fill:#C7CFE2;" d="M8.663,456.57c-3.181,4.221-5.034,9.401-5.034,14.887v32.286c0,4.561,3.697,8.258,8.258,8.258
		h24.774v-25.094c0-5.017-2.281-9.763-6.199-12.897L8.663,456.57z"/>
	<path style="fill:#C7CFE2;" d="M147.24,456.57c3.181,4.221,5.034,9.401,5.034,14.887v32.286c0,4.561-3.697,8.258-8.258,8.258
		h-24.774v-25.094c0-5.017,2.281-9.763,6.199-12.897L147.24,456.57z"/>
</g>
<path style="fill:#5A4146;" d="M322.811,125.382c-7.057-18.698-12.654-50.841-13.863-67.576C306.648,25.961,282.649,0,250.208,0
	s-56.441,25.961-58.741,57.806c-1.209,16.734-6.806,48.878-13.863,67.576c-1.555,4.122,0.24,8.667,4.299,10.507
	c7.562,3.427,23.685,10.141,43.13,12.756h50.349c19.354-2.621,35.59-9.339,43.13-12.756
	C322.57,134.049,324.366,129.504,322.811,125.382z"/>
<path style="fill:#694B4B;" d="M318.512,135.889c4.058-1.84,5.854-6.385,4.298-10.507c-7.056-18.698-12.654-50.841-13.862-67.576
	C306.649,25.961,282.649,0,250.208,0c-0.082,0-0.163,0-0.245,0c-24.893,0.101-33.69,34.05-12.261,46.717
	c1.287,0.761,2.112,1.127,2.112,1.127l18.769,100.8h16.799C294.736,146.024,310.972,139.306,318.512,135.889z"/>
<path style="fill:#E6AF78;" d="M309.939,165.224l-26.724-13.361c-5.596-2.798-9.131-8.518-9.13-14.774l0.001-24.775h-49.548v24.776
	c0,6.256-3.534,11.974-9.13,14.772l-26.724,13.362c-8.393,4.197-13.695,12.775-13.695,22.158v32.286c0,4.56,3.697,8.258,8.258,8.258
	h132.129c4.561,0,8.258-3.698,8.258-8.258v-32.285C323.634,177.999,318.332,169.421,309.939,165.224z"/>
<path style="fill:#D29B6E;" d="M249.312,145.346c8.892,0,17.409-1.833,25.217-5.096c-0.205-1.041-0.444-2.076-0.444-3.161
	l0.001-24.775h-49.548v24.776c0,1.091-0.239,2.131-0.446,3.176C231.904,143.512,240.417,145.346,249.312,145.346z"/>
<path style="fill:#FF507D;" d="M309.939,165.224l-19.038-9.519c-8.828,13.632-24.139,22.673-41.589,22.673
	s-32.762-9.041-41.59-22.674l-19.038,9.52c-8.393,4.197-13.695,12.775-13.695,22.159v32.286c0,4.561,3.697,8.258,8.258,8.258
	h132.129c4.561,0,8.258-3.697,8.258-8.258v-32.285C323.634,177.999,318.332,169.421,309.939,165.224z"/>
<path style="fill:#F0C087;" d="M249.312,128.83L249.312,128.83c-25.192,0-45.992-18.8-49.137-43.135
	c-0.456-3.525,1.239-6.983,4.413-8.584c3.802-1.918,9.327-5.152,14.617-9.872c5.891-5.256,9.347-10.799,11.299-14.868
	c1.681-3.504,5.545-5.486,9.311-4.525c29.076,7.416,48.871,22.543,56.053,28.719c1.928,1.658,3.039,4.103,2.841,6.639
	C296.708,108.735,275.356,128.83,249.312,128.83z"/>
<path style="fill:#E6AF78;" d="M295.866,76.564c-7.181-6.176-26.977-21.303-56.053-28.719c-3.766-0.961-7.63,1.021-9.311,4.525
	c-1.478,3.082-3.921,7.008-7.546,11.016c-0.001,0.01-0.004,0.018-0.005,0.028c-1.125,1.275-2.323,2.553-3.747,3.825
	c-5.29,4.721-10.815,7.954-14.617,9.872c-3.174,1.601-4.868,5.059-4.413,8.585c2.825,21.855,19.927,39.12,41.625,42.438
	c-9.887-6.726-17.262-15.845-17.262-32.335V84.022c1.876-1.385,3.765-2.766,5.663-4.46c4.59-4.096,8.597-8.833,11.81-13.933
	c22.243,6.941,37.323,18.502,43.04,23.418c1.565,1.372,5.449,4.952,9.993,9.215c1.955-4.705,3.248-9.753,3.663-15.058
	C298.906,80.668,297.795,78.222,295.866,76.564z"/>
<g>
	<path style="fill:#D23C69;" d="M180.023,172.496c-3.181,4.221-5.034,9.401-5.034,14.887v32.286c0,4.561,3.697,8.258,8.258,8.258
		h24.774v-25.094c0-5.017-2.281-9.763-6.199-12.897L180.023,172.496z"/>
	<path style="fill:#D23C69;" d="M318.6,172.496c3.181,4.221,5.034,9.401,5.034,14.887v32.286c0,4.561-3.697,8.258-8.258,8.258
		h-24.774v-25.094c0-5.017,2.281-9.763,6.199-12.897L318.6,172.496z"/>
</g>
<path style="fill:#D5DCED;" d="M346.645,405.935l-87.016-55.374v-86.303c0-4.56-3.694-8.258-8.258-8.258s-8.258,3.698-8.258,8.258
	v86.303l-87.016,55.374c-3.847,2.448-4.984,7.552-2.532,11.403c2.444,3.843,7.54,4.98,11.403,2.532l86.403-54.984l86.403,54.984
	c1.379,0.875,2.911,1.29,4.427,1.29c2.726,0,5.403-1.351,6.976-3.823C351.629,413.488,350.492,408.383,346.645,405.935z"/>
<g>
</g>
<g>
</g>
<g>
</g>
<g>
</g>
<g>
</g>
<g>
</g>
<g>
</g>
<g>
</g>
<g>
</g>
<g>
</g>
<g>
</g>
<g>
</g>
<g>
</g>
<g>
</g>
<g>
</g>
</svg>
