<?xml version="1.0" encoding="iso-8859-1"?>
<!-- Generator: Adobe Illustrator 19.0.0, SVG Export Plug-In . SVG Version: 6.00 Build 0)  -->
<svg version="1.1" id="Layer_1" xmlns="http://www.w3.org/2000/svg" xmlns:xlink="http://www.w3.org/1999/xlink" x="0px" y="0px"
	 viewBox="0 0 511.999 511.999" style="enable-background:new 0 0 511.999 511.999;" xml:space="preserve">
<ellipse style="fill:#785550;" cx="140.39" cy="94.966" rx="49.548" ry="41.29"/>
<path style="fill:#694B4B;" d="M123.871,94.964c0-17.97,13.8-33.217,33.032-38.891c-5.173-1.526-10.716-2.4-16.516-2.4
	c-27.365,0-49.548,18.486-49.548,41.29s22.183,41.29,49.548,41.29c5.8,0,11.343-0.873,16.516-2.4
	C137.671,128.18,123.871,112.934,123.871,94.964z"/>
<circle style="fill:#5A4146;" cx="140.39" cy="202.316" r="107.36"/>
<path style="fill:#694B4B;" d="M119.444,178.879c0.707,0.216,1.097,0.317,1.097,0.317l10.484,130.005
	c3.091,0.268,6.201,0.473,9.362,0.473c59.29,0,107.355-48.065,107.355-107.355c0-28.043-8.645-45.806-19.702-61.852
	c-19.441-27.497-51.416-45.503-87.653-45.503c-5.548,0-10.955,0.552-16.276,1.363C81.75,104.313,76.456,165.755,119.444,178.879z"/>
<path style="fill:#E6AF78;" d="M0,474.835v-44.543c0-13.082,7.72-24.931,19.687-30.216l69.567-30.725
	c5.983-2.643,9.843-8.567,9.843-15.108v-36.31h82.581v36.31c0,6.541,3.86,12.466,9.843,15.108l69.567,30.725
	c11.967,5.285,19.687,17.135,19.687,30.216v44.543c0,4.561-3.697,8.258-8.258,8.258H8.258C3.697,483.093,0,479.396,0,474.835z"/>
<path style="fill:#FFF082;" d="M261.088,400.075l-51.311-22.662c-10.67,27.969-37.672,47.873-69.39,47.873
	s-58.719-19.904-69.39-47.873l-51.311,22.662C7.72,405.36,0,417.21,0,430.291v44.543c0,4.56,3.697,8.258,8.258,8.258h264.258
	c4.561,0,8.258-3.698,8.258-8.258v-44.543C280.774,417.21,273.054,405.36,261.088,400.075z"/>
<path style="fill:#D29B6E;" d="M99.097,341.867c12.583,5.783,26.535,9.097,41.29,9.097s28.708-3.314,41.29-9.097v-23.935h-82.58
	V341.867z"/>
<path style="fill:#F0C087;" d="M214.64,218.841c-13.26-11.532-43.031-31.925-94.099-39.646c-7.067-1.069-14.194,2.41-17.338,8.829
	c-5.239,10.697-16.382,27.824-38.508,42.918c-4.392,2.996-6.889,8.092-6.889,13.408v4.688c0,43.984,33.191,82.389,77.083,85.231
	c48.097,3.114,88.078-34.975,88.078-82.402v-14.488C222.968,230.282,219.995,223.498,214.64,218.841z"/>
<path style="fill:#E6AF78;" d="M219.266,224.537c-1.269-2.088-2.741-4.056-4.626-5.696c-13.26-11.533-43.032-31.925-94.099-39.646
	c-7.068-1.069-14.194,2.409-17.338,8.829c-1.263,2.579-2.953,5.584-4.98,8.794c-6.34,10.07-16.678,22.601-33.396,34.033
	c-4.431,3.03-7.021,8.131-7.021,13.499v4.688c0,42.45,30.95,79.603,72.563,84.705c-14.225-14.835-23.014-34.925-23.014-57.102
	v-51.918c0-8.496,6.38-15.591,14.834-16.445C142.041,206.275,179.399,206.103,219.266,224.537z"/>
<g>
	<path style="fill:#FFDC64;" d="M12.351,404.605C4.682,410.781,0,420.144,0,430.291v44.543c0,4.561,3.697,8.258,8.258,8.258h49.548
		v-22.77c0-6.571-2.61-12.872-7.256-17.518L12.351,404.605z"/>
	<path style="fill:#FFDC64;" d="M268.423,404.605c7.668,6.176,12.351,15.539,12.351,25.686v44.543c0,4.561-3.697,8.258-8.258,8.258
		h-49.548v-22.77c0-6.571,2.61-12.872,7.256-17.518L268.423,404.605z"/>
</g>
<path style="fill:#E2E7F2;" d="M487.226,53.673H305.548c-13.682,0-24.774,11.092-24.774,24.774v132.129
	c0,13.682,11.092,24.774,24.774,24.774h24.774l-13.76,55.04c-0.935,3.742,3.315,6.609,6.434,4.341l81.648-59.381h82.581
	c13.682,0,24.774-11.092,24.774-24.774V78.448C512,64.765,500.908,53.673,487.226,53.673z"/>
<path style="fill:#ECF0FA;" d="M313.806,94.964c0,45.608,36.973,82.581,82.581,82.581s82.581-36.973,82.581-82.581
	c0-15.059-4.096-29.134-11.138-41.29H324.945C317.903,65.83,313.806,79.904,313.806,94.964z"/>
<path style="fill:#959CB5;" d="M396.387,210.577c-4.565,0-8.258-3.698-8.258-8.258v-16.516c0-4.56,3.694-8.258,8.258-8.258
	s8.258,3.698,8.258,8.258v16.516C404.645,206.879,400.952,210.577,396.387,210.577z"/>
<circle style="fill:#FFDC64;" cx="396.39" cy="94.966" r="66.06"/>
<circle style="fill:#FFF082;" cx="396.39" cy="94.966" r="49.548"/>
<path style="fill:#FFFFFF;" d="M422.952,86.903c-4.419-0.976-8.863,1.815-9.855,6.27l-0.398,1.79h-32.624l-0.398-1.79
	c-0.992-4.456-5.419-7.254-9.855-6.27c-4.452,0.988-7.258,5.399-6.274,9.851l13.649,61.421c5.569,1.689,11.457,2.619,17.54,2.77
	l-10.992-49.465h25.283l-10.992,49.465c6.084-0.151,11.972-1.081,17.54-2.77l13.649-61.421
	C430.21,92.302,427.403,87.891,422.952,86.903z"/>
<path style="fill:#AFB9D2;" d="M371.613,156.203v29.6c0,4.56,3.697,8.258,8.258,8.258h33.032c4.561,0,8.258-3.698,8.258-8.258v-29.6
	H371.613z"/>
<path style="fill:#959CB5;" d="M388.129,185.802v-29.6h-16.516v29.6c0,4.56,3.697,8.258,8.258,8.258h16.516
	C391.826,194.061,388.129,190.363,388.129,185.802z"/>
<g>
</g>
<g>
</g>
<g>
</g>
<g>
</g>
<g>
</g>
<g>
</g>
<g>
</g>
<g>
</g>
<g>
</g>
<g>
</g>
<g>
</g>
<g>
</g>
<g>
</g>
<g>
</g>
<g>
</g>
</svg>
